<svg width="46" height="30" viewBox="0 0 46 30" fill="none" xmlns="http://www.w3.org/2000/svg">
<path d="M6.57264 20H4.16205V8.58733H0.301325V6.55339H10.4334V8.58733H6.57264V20ZM14.639 9.79263V20H12.266V9.79263H14.639ZM13.4525 5.85657C13.804 5.85657 14.1116 5.95074 14.3753 6.13906C14.639 6.31484 14.7708 6.63499 14.7708 7.09954C14.7708 7.55152 14.639 7.87796 14.3753 8.07884C14.1116 8.26717 13.804 8.36133 13.4525 8.36133C13.0884 8.36133 12.7745 8.26717 12.5109 8.07884C12.2598 7.87796 12.1342 7.55152 12.1342 7.09954C12.1342 6.63499 12.2598 6.31484 12.5109 6.13906C12.7745 5.95074 13.0884 5.85657 13.4525 5.85657ZM20.0272 12.4857C20.0272 12.8122 20.0146 13.1574 19.9895 13.5215C19.9644 13.8731 19.9393 14.2183 19.9142 14.5573H19.9707C20.0711 14.4067 20.1904 14.2434 20.3285 14.0677C20.4666 13.8793 20.6047 13.6973 20.7428 13.5215C20.8935 13.3332 21.0379 13.1637 21.176 13.013L24.1893 9.79263H26.8823L22.7956 14.1995L27.146 20H24.3776L21.2137 15.6308L20.0272 16.6101V20H17.6731V5.68708H20.0272V12.4857ZM32.8503 9.6043C33.7668 9.6043 34.5515 9.79263 35.2044 10.1693C35.8698 10.5334 36.3846 11.0607 36.7487 11.7512C37.1128 12.4292 37.2948 13.2579 37.2948 14.2372V15.4425H30.5527C30.5778 16.3715 30.8352 17.0935 31.3248 17.6082C31.8145 18.1104 32.4925 18.3615 33.3588 18.3615C34.0242 18.3615 34.6143 18.2988 35.129 18.1732C35.6564 18.0351 36.1962 17.8405 36.7487 17.5894V19.4915C36.2465 19.7301 35.7254 19.9058 35.1855 20.0188C34.6457 20.1318 33.9991 20.1883 33.2458 20.1883C32.2539 20.1883 31.3688 20 30.5903 19.6233C29.8245 19.2341 29.2218 18.6503 28.7824 17.8719C28.3555 17.0935 28.1421 16.1267 28.1421 14.9716C28.1421 13.804 28.3367 12.8247 28.7259 12.0337C29.1277 11.2302 29.6801 10.6275 30.3832 10.2258C31.0863 9.81146 31.9086 9.6043 32.8503 9.6043ZM32.8503 11.3557C32.2225 11.3557 31.7078 11.5629 31.306 11.9772C30.9168 12.379 30.6845 12.9816 30.6092 13.7852H34.9972C34.9972 13.3081 34.9156 12.8875 34.7524 12.5234C34.6017 12.1593 34.3695 11.8768 34.0556 11.6759C33.7417 11.4625 33.3399 11.3557 32.8503 11.3557ZM43.6425 18.2862C43.9438 18.2862 44.2326 18.2611 44.5088 18.2109C44.785 18.1481 45.0424 18.0791 45.2809 18.0037V19.774C45.0298 19.887 44.7034 19.9812 44.3016 20.0565C43.8999 20.1444 43.4793 20.1883 43.0398 20.1883C42.4623 20.1883 41.935 20.0942 41.4579 19.9058C40.9933 19.705 40.6167 19.366 40.3279 18.8889C40.0517 18.4118 39.9136 17.7463 39.9136 16.8926V11.5817H38.5388V10.5459L40.0454 9.7173L40.7987 7.55152H42.2865V9.79263H45.1868V11.5817H42.2865V16.8738C42.2865 17.3509 42.4121 17.7087 42.6632 17.9472C42.9143 18.1732 43.2407 18.2862 43.6425 18.2862Z" fill="black"/>
<circle cx="13.5516" cy="6.9256" r="1.50568" fill="#359AFF"/>
</svg>
