<svg width="13" height="16" viewBox="0 0 13 16" fill="none" xmlns="http://www.w3.org/2000/svg">
<g clip-path="url(#clip0_5329_3495)">
<rect y="2.3623" width="13" height="13" rx="6.5" fill="#359AFF"/>
<path d="M7.99972 6.28878V19.5H4.92847V6.28878H7.99972ZM6.46409 1.19442C6.91909 1.19442 7.31722 1.31629 7.65847 1.56004C7.99972 1.78754 8.17034 2.20191 8.17034 2.80316C8.17034 3.38816 7.99972 3.81066 7.65847 4.07066C7.31722 4.31441 6.91909 4.43628 6.46409 4.43628C5.99284 4.43628 5.5866 4.31441 5.24535 4.07066C4.92035 3.81066 4.75785 3.38816 4.75785 2.80316C4.75785 2.20191 4.92035 1.78754 5.24535 1.56004C5.5866 1.31629 5.99284 1.19442 6.46409 1.19442Z" fill="black"/>
</g>
<circle cx="6.49938" cy="2.36364" r="2.36364" fill="black"/>
<defs>
<clipPath id="clip0_5329_3495">
<rect y="2.3623" width="13" height="13" rx="6.5" fill="white"/>
</clipPath>
</defs>
</svg>
