<svg width="28" height="26" viewBox="0 0 28 26" fill="none" xmlns="http://www.w3.org/2000/svg">
<path d="M15.9991 14.4476C15.9991 14.7443 15.9111 15.0343 15.7463 15.2809C15.5814 15.5276 15.3472 15.7199 15.0731 15.8334C14.799 15.9469 14.4974 15.9766 14.2064 15.9188C13.9154 15.8609 13.6482 15.718 13.4384 15.5082C13.2286 15.2985 13.0858 15.0312 13.0279 14.7402C12.97 14.4492 12.9997 14.1476 13.1132 13.8736C13.2268 13.5995 13.419 13.3652 13.6657 13.2004C13.9124 13.0356 14.2024 12.9476 14.4991 12.9476C14.8969 12.9476 15.2784 13.1056 15.5597 13.3869C15.841 13.6682 15.9991 14.0498 15.9991 14.4476ZM21.4991 12.9476C21.2024 12.9476 20.9124 13.0356 20.6657 13.2004C20.419 13.3652 20.2268 13.5995 20.1132 13.8736C19.9997 14.1476 19.97 14.4492 20.0279 14.7402C20.0858 15.0312 20.2286 15.2985 20.4384 15.5082C20.6482 15.718 20.9154 15.8609 21.2064 15.9188C21.4974 15.9766 21.799 15.9469 22.0731 15.8334C22.3472 15.7199 22.5814 15.5276 22.7463 15.2809C22.9111 15.0343 22.9991 14.7443 22.9991 14.4476C22.9991 14.0498 22.841 13.6682 22.5597 13.3869C22.2784 13.1056 21.8969 12.9476 21.4991 12.9476ZM27.9166 23.3813C28.0182 23.7261 28.025 24.092 27.9362 24.4403C27.8475 24.7887 27.6665 25.1067 27.4123 25.3609C27.1581 25.615 26.8401 25.796 26.4918 25.8848C26.1434 25.9735 25.7776 25.9667 25.4328 25.8651L22.3441 24.9563C21.1264 25.5436 19.8023 25.8779 18.4518 25.939C17.1013 26.0001 15.7524 25.7867 14.4867 25.3117C13.221 24.8368 12.0647 24.1101 11.0878 23.1757C10.1109 22.2413 9.33354 21.1184 8.80281 19.8751C7.70934 19.7465 6.64508 19.436 5.65406 18.9563L2.56531 19.8651C2.22049 19.9667 1.85467 19.9735 1.50632 19.8848C1.15797 19.796 0.839972 19.615 0.585787 19.3609C0.331601 19.1067 0.150621 18.7887 0.0618885 18.4403C-0.0268445 18.092 -0.0200506 17.7261 0.0815554 17.3813L0.990305 14.2926C0.420367 13.0934 0.0949397 11.7927 0.0330074 10.4665C-0.0289249 9.14017 0.173878 7.81484 0.629586 6.56776C1.08529 5.32069 1.78478 4.17685 2.68724 3.20298C3.5897 2.22911 4.67706 1.4447 5.88588 0.895522C7.09471 0.346343 8.4008 0.0433864 9.72795 0.00432812C11.0551 -0.0347302 12.3767 0.190892 13.6158 0.66803C14.8548 1.14517 15.9864 1.86427 16.9446 2.78339C17.9028 3.7025 18.6683 4.80322 19.1966 6.02133C20.7761 6.21167 22.2874 6.77613 23.6049 7.66781C24.9225 8.55949 26.0083 9.75267 26.7721 11.1482C27.536 12.5438 27.9559 14.1015 27.9968 15.6919C28.0378 17.2823 27.6988 18.8595 27.0078 20.2926L27.9166 23.3813ZM8.16156 17.7351C7.91422 16.3804 7.94956 14.9892 8.26535 13.6489C8.58114 12.3085 9.17057 11.0479 9.99664 9.94608C10.8227 8.84429 11.8676 7.92515 13.0657 7.24631C14.2639 6.56748 15.5894 6.14362 16.9591 6.00133C16.4522 5.08101 15.7689 4.26955 14.9484 3.61327C14.1279 2.95698 13.1862 2.46874 12.177 2.17641C10.1388 1.58602 7.9496 1.82947 6.09093 2.85321C4.23226 3.87695 2.85639 5.59711 2.26601 7.63527C1.67562 9.67344 1.91907 11.8627 2.94281 13.7213C3.06593 13.9515 3.09419 14.2206 3.02156 14.4713L1.99906 17.9476L5.46906 16.9263C5.71975 16.8537 5.98891 16.882 6.21906 17.0051C6.83179 17.3324 7.48488 17.5779 8.16156 17.7351ZM25.0553 19.7213C25.9599 18.0296 26.2265 16.069 25.8063 14.1972C25.3862 12.3253 24.3074 10.6667 22.7666 9.52377C21.2258 8.38083 19.3256 7.82965 17.4123 7.97071C15.4991 8.11176 13.7002 8.93566 12.3437 10.2922C10.9871 11.6487 10.1632 13.4476 10.0222 15.3609C9.88113 17.2741 10.4323 19.1743 11.5752 20.7152C12.7182 22.256 14.3768 23.3348 16.2486 23.7549C18.1205 24.175 20.081 23.9084 21.7728 23.0038C22.0029 22.8807 22.2721 22.8525 22.5228 22.9251L25.9991 23.9476L24.9778 20.4776C24.9031 20.2251 24.9309 19.9534 25.0553 19.7213Z" fill="black"/>
</svg>
