<svg width="32" height="32" viewBox="0 0 32 32" fill="none" xmlns="http://www.w3.org/2000/svg">
<path d="M17.2927 25.7076C17.1997 25.6147 17.126 25.5044 17.0756 25.383C17.0253 25.2616 16.9994 25.1315 16.9994 25.0001C16.9994 24.8687 17.0253 24.7385 17.0756 24.6171C17.126 24.4957 17.1997 24.3854 17.2927 24.2926L24.5864 17.0001H5.00019C4.73497 17.0001 4.48062 16.8947 4.29308 16.7072C4.10555 16.5196 4.00019 16.2653 4.00019 16.0001C4.00019 15.7349 4.10555 15.4805 4.29308 15.293C4.48062 15.1054 4.73497 15.0001 5.00019 15.0001H24.5864L17.2927 7.70757C17.105 7.51993 16.9996 7.26543 16.9996 7.00007C16.9996 6.7347 17.105 6.48021 17.2927 6.29257C17.4803 6.10493 17.7348 5.99951 18.0002 5.99951C18.2656 5.99951 18.5201 6.10493 18.7077 6.29257L27.7077 15.2926C27.8007 15.3854 27.8744 15.4957 27.9247 15.6171C27.9751 15.7385 28.001 15.8687 28.001 16.0001C28.001 16.1315 27.9751 16.2616 27.9247 16.383C27.8744 16.5044 27.8007 16.6147 27.7077 16.7076L18.7077 25.7076C18.6148 25.8005 18.5045 25.8743 18.3831 25.9246C18.2617 25.975 18.1316 26.0009 18.0002 26.0009C17.8688 26.0009 17.7386 25.975 17.6172 25.9246C17.4959 25.8743 17.3856 25.8005 17.2927 25.7076Z" fill="black"/>
</svg>
