<svg width="29" height="29" viewBox="0 0 29 29" fill="none" xmlns="http://www.w3.org/2000/svg">
<path d="M25.7121 16.2391V23.4565C25.7121 23.8154 25.5695 24.1596 25.3157 24.4134C25.0619 24.6671 24.7177 24.8097 24.3588 24.8097H4.51098C4.15207 24.8097 3.80786 24.6671 3.55408 24.4134C3.30029 24.1596 3.15771 23.8154 3.15771 23.4565V16.2391C3.15771 15.8802 3.30029 15.536 3.55408 15.2822C3.80786 15.0284 4.15207 14.8858 4.51098 14.8858C4.86988 14.8858 5.21409 15.0284 5.46788 15.2822C5.72166 15.536 5.86424 15.8802 5.86424 16.2391V22.1032H23.0055V16.2391C23.0055 15.8802 23.1481 15.536 23.4019 15.2822C23.6557 15.0284 23.9999 14.8858 24.3588 14.8858C24.7177 14.8858 25.0619 15.0284 25.3157 15.2822C25.5695 15.536 25.7121 15.8802 25.7121 16.2391ZM13.4775 17.1965C13.6032 17.3227 13.7526 17.4228 13.9171 17.4911C14.0816 17.5594 14.2579 17.5945 14.436 17.5945C14.6141 17.5945 14.7905 17.5594 14.955 17.4911C15.1195 17.4228 15.2689 17.3227 15.3946 17.1965L19.9054 12.6856C20.1597 12.4314 20.3025 12.0866 20.3025 11.7271C20.3025 11.3675 20.1597 11.0227 19.9054 10.7685C19.6512 10.5143 19.3064 10.3715 18.9469 10.3715C18.5874 10.3715 18.2426 10.5143 17.9883 10.7685L15.7881 12.9687V3.60863C15.7881 3.24972 15.6456 2.90552 15.3918 2.65173C15.138 2.39795 14.7938 2.25537 14.4349 2.25537C14.076 2.25537 13.7318 2.39795 13.478 2.65173C13.2242 2.90552 13.0816 3.24972 13.0816 3.60863V12.9687L10.8815 10.7708C10.7556 10.6449 10.6061 10.545 10.4417 10.4769C10.2772 10.4088 10.1009 10.3737 9.92289 10.3737C9.56336 10.3737 9.21856 10.5165 8.96433 10.7708C8.83845 10.8966 8.7386 11.0461 8.67047 11.2106C8.60235 11.375 8.56728 11.5513 8.56728 11.7293C8.56728 12.0889 8.71011 12.4337 8.96433 12.6879L13.4775 17.1965Z" fill="black"/>
</svg>
