<svg width="22" height="17" viewBox="0 0 22 17" fill="none" xmlns="http://www.w3.org/2000/svg">
<path d="M21.0938 8.01562C21.0938 8.35129 20.9604 8.67321 20.7231 8.91056C20.4857 9.14791 20.1638 9.28125 19.8281 9.28125H1.26562C0.92996 9.28125 0.608044 9.14791 0.370693 8.91056C0.133342 8.67321 0 8.35129 0 8.01562C0 7.67996 0.133342 7.35804 0.370693 7.12069C0.608044 6.88334 0.92996 6.75 1.26562 6.75H19.8281C20.1638 6.75 20.4857 6.88334 20.7231 7.12069C20.9604 7.35804 21.0938 7.67996 21.0938 8.01562ZM1.26562 2.53125H19.8281C20.1638 2.53125 20.4857 2.39791 20.7231 2.16056C20.9604 1.92321 21.0938 1.60129 21.0938 1.26562C21.0938 0.92996 20.9604 0.608044 20.7231 0.370693C20.4857 0.133342 20.1638 0 19.8281 0H1.26562C0.92996 0 0.608044 0.133342 0.370693 0.370693C0.133342 0.608044 0 0.92996 0 1.26562C0 1.60129 0.133342 1.92321 0.370693 2.16056C0.608044 2.39791 0.92996 2.53125 1.26562 2.53125ZM19.8281 13.5H1.26562C0.92996 13.5 0.608044 13.6333 0.370693 13.8707C0.133342 14.108 0 14.43 0 14.7656C0 15.1013 0.133342 15.4232 0.370693 15.6606C0.608044 15.8979 0.92996 16.0312 1.26562 16.0312H19.8281C20.1638 16.0312 20.4857 15.8979 20.7231 15.6606C20.9604 15.4232 21.0938 15.1013 21.0938 14.7656C21.0938 14.43 20.9604 14.108 20.7231 13.8707C20.4857 13.6333 20.1638 13.5 19.8281 13.5Z" fill="black"/>
</svg>
