<svg width="20" height="17" viewBox="0 0 20 17" fill="none" xmlns="http://www.w3.org/2000/svg">
<g clip-path="url(#clip0_5559_4563)">
<rect x="3.07422" y="16.9163" width="16.9162" height="16.9162" rx="8.45811" transform="rotate(-90 3.07422 16.9163)" fill="#C0C0C0"/>
<path d="M8.35092 6.50594H25.542V10.5024H8.35092V6.50594ZM1.72189 8.50416C1.72189 7.9121 1.88048 7.39404 2.19766 6.94999C2.49369 6.50594 3.03289 6.28391 3.81527 6.28391C4.5765 6.28391 5.12627 6.50594 5.4646 6.94999C5.78178 7.39404 5.94036 7.9121 5.94036 8.50416C5.94036 9.11738 5.78178 9.64601 5.4646 10.0901C5.12627 10.513 4.5765 10.7244 3.81527 10.7244C3.03289 10.7244 2.49369 10.513 2.19766 10.0901C1.88048 9.64601 1.72189 9.11738 1.72189 8.50416Z" fill="black"/>
</g>
<circle cx="3.07568" cy="8.45924" r="3.07568" transform="rotate(-90 3.07568 8.45924)" fill="black"/>
<defs>
<clipPath id="clip0_5559_4563">
<rect x="3.07422" y="16.9163" width="16.9162" height="16.9162" rx="8.45811" transform="rotate(-90 3.07422 16.9163)" fill="white"/>
</clipPath>
</defs>
</svg>
