<svg width="141" height="71" viewBox="0 0 141 71" fill="none" xmlns="http://www.w3.org/2000/svg">
<g clip-path="url(#clip0_5351_4287)">
<rect y="20.3994" width="30.55" height="30.55" rx="15.275" fill="#359AFF"/>
<path d="M18.7996 29.5269V60.5732H11.5822V29.5269H18.7996ZM15.1909 17.5551C16.2601 17.5551 17.1957 17.8415 17.9976 18.4143C18.7996 18.949 19.2005 19.9227 19.2005 21.3357C19.2005 22.7104 18.7996 23.7033 17.9976 24.3143C17.1957 24.8871 16.2601 25.1735 15.1909 25.1735C14.0834 25.1735 13.1287 24.8871 12.3268 24.3143C11.5631 23.7033 11.1812 22.7104 11.1812 21.3357C11.1812 19.9227 11.5631 18.949 12.3268 18.4143C13.1287 17.8415 14.0834 17.5551 15.1909 17.5551Z" fill="white"/>
</g>
<circle cx="15.2733" cy="20.4027" r="5.55455" fill="white"/>
<path d="M48.3461 47H42.6812V20.1802H33.6085V15.4005H57.4188V20.1802H48.3461V47ZM67.302 23.0127V47H61.7256V23.0127H67.302ZM64.5138 13.7629C65.3399 13.7629 66.0628 13.9842 66.6824 14.4268C67.302 14.8399 67.6118 15.5922 67.6118 16.6839C67.6118 17.7461 67.302 18.5132 66.6824 18.9853C66.0628 19.4278 65.3399 19.6491 64.5138 19.6491C63.6581 19.6491 62.9205 19.4278 62.3009 18.9853C61.7108 18.5132 61.4158 17.7461 61.4158 16.6839C61.4158 15.5922 61.7108 14.8399 62.3009 14.4268C62.9205 13.9842 63.6581 13.7629 64.5138 13.7629ZM79.9643 29.3414C79.9643 30.1086 79.9348 30.9199 79.8758 31.7756C79.8168 32.6017 79.7578 33.4131 79.6988 34.2097H79.8315C80.0676 33.8557 80.3479 33.4721 80.6724 33.059C80.997 32.6165 81.3215 32.1886 81.6461 31.7756C82.0001 31.333 82.3394 30.9347 82.664 30.5806L89.7451 23.0127H96.0739L86.4701 33.3688L96.6935 47H90.1877L82.7525 36.7324L79.9643 39.0337V47H74.4322V13.3646H79.9643V29.3414ZM110.099 22.5701C112.252 22.5701 114.096 23.0127 115.631 23.8978C117.194 24.7534 118.404 25.9926 119.26 27.6154C120.115 29.2087 120.543 31.156 120.543 33.4573V36.2898H104.699C104.758 38.4731 105.363 40.1697 106.514 41.3794C107.664 42.5595 109.258 43.1496 111.293 43.1496C112.857 43.1496 114.244 43.0021 115.454 42.7071C116.693 42.3825 117.962 41.9252 119.26 41.3351V45.8051C118.08 46.3656 116.855 46.7787 115.586 47.0443C114.318 47.3098 112.798 47.4426 111.028 47.4426C108.697 47.4426 106.617 47 104.788 46.1149C102.988 45.2002 101.572 43.8282 100.539 41.999C99.5358 40.1697 99.0343 37.8978 99.0343 35.1834C99.0343 32.4394 99.4916 30.1381 100.406 28.2793C101.35 26.391 102.649 24.9747 104.301 24.0306C105.953 23.0569 107.886 22.5701 110.099 22.5701ZM110.099 26.686C108.623 26.686 107.414 27.1728 106.469 28.1465C105.555 29.0906 105.009 30.5069 104.832 32.3952H115.144C115.144 31.274 114.952 30.2856 114.568 29.4299C114.214 28.5743 113.669 27.9105 112.931 27.4384C112.193 26.9368 111.249 26.686 110.099 26.686ZM135.46 42.9726C136.168 42.9726 136.847 42.9136 137.496 42.7956C138.145 42.6481 138.75 42.4858 139.311 42.3088V46.4689C138.721 46.7345 137.953 46.9557 137.009 47.1328C136.065 47.3393 135.077 47.4426 134.044 47.4426C132.687 47.4426 131.448 47.2213 130.326 46.7787C129.235 46.3066 128.35 45.51 127.671 44.3888C127.022 43.2677 126.697 41.7039 126.697 39.6976V27.2171H123.467V24.783L127.007 22.8356L128.777 17.7461H132.274V23.0127H139.089V27.2171H132.274V39.6533C132.274 40.7745 132.569 41.6154 133.159 42.176C133.749 42.7071 134.516 42.9726 135.46 42.9726Z" fill="white"/>
<circle cx="64.7464" cy="16.2752" r="3.53835" fill="#359AFF"/>
<defs>
<clipPath id="clip0_5351_4287">
<rect y="20.3994" width="30.55" height="30.55" rx="15.275" fill="white"/>
</clipPath>
</defs>
</svg>
