<svg width="246" height="291" viewBox="0 0 246 291" fill="none" xmlns="http://www.w3.org/2000/svg">
<g clip-path="url(#clip0_5616_3462)">
<rect y="44.7021" width="246" height="246" rx="123" fill="#359AFF"/>
<path d="M151.398 118.003V368H93.2811V118.003H151.398ZM122.34 21.602C130.95 21.602 138.483 23.9083 144.941 28.5208C151.398 32.8257 154.627 40.667 154.627 52.0445C154.627 63.1144 151.398 71.1094 144.941 76.0294C138.483 80.6419 130.95 82.9481 122.34 82.9481C113.422 82.9481 105.735 80.6419 99.2773 76.0294C93.1273 71.1094 90.0523 63.1144 90.0523 52.0445C90.0523 40.667 93.1273 32.8257 99.2773 28.5208C105.735 23.9083 113.422 21.602 122.34 21.602Z" fill="black"/>
</g>
<circle cx="123.007" cy="44.7273" r="44.7273" fill="black"/>
<defs>
<clipPath id="clip0_5616_3462">
<rect y="44.7021" width="246" height="246" rx="123" fill="white"/>
</clipPath>
</defs>
</svg>
