<svg width="29" height="29" viewBox="0 0 29 29" fill="none" xmlns="http://www.w3.org/2000/svg">
<path d="M23.0056 7.21703V18.9453C23.0056 19.3042 22.863 19.6484 22.6093 19.9022C22.3555 20.156 22.0113 20.2986 21.6524 20.2986C21.2935 20.2986 20.9492 20.156 20.6955 19.9022C20.4417 19.6484 20.2991 19.3042 20.2991 18.9453V10.4874L8.17501 22.6092C7.92078 22.8635 7.57598 23.0063 7.21645 23.0063C6.85692 23.0063 6.51211 22.8635 6.25789 22.6092C6.00366 22.355 5.86084 22.0102 5.86084 21.6507C5.86084 21.2912 6.00366 20.9464 6.25789 20.6921L18.382 8.57029H9.9241C9.56519 8.57029 9.22098 8.42772 8.9672 8.17393C8.71341 7.92015 8.57084 7.57594 8.57084 7.21703C8.57084 6.85812 8.71341 6.51392 8.9672 6.26013C9.22098 6.00634 9.56519 5.86377 9.9241 5.86377H21.6524C22.0113 5.86377 22.3555 6.00634 22.6093 6.26013C22.863 6.51392 23.0056 6.85812 23.0056 7.21703Z" fill="black"/>
</svg>
