<svg width="342" height="342" viewBox="0 0 342 342" fill="none" xmlns="http://www.w3.org/2000/svg">
<path d="M61.0323 33.1795L146.043 66.5059L215.129 6.26558C218.871 2.97884 223.503 0.874758 228.44 0.219133C233.377 -0.436493 238.397 0.385727 242.867 2.58192C247.337 4.77816 251.055 8.24984 253.553 12.5584C256.051 16.867 257.216 21.8192 256.9 26.7894L250.852 117.684L329.293 164.078C333.559 166.632 336.974 170.391 339.108 174.882C341.242 179.372 341.999 184.394 341.285 189.315C340.571 194.235 338.416 198.834 335.094 202.532C331.771 206.231 327.428 208.864 322.612 210.099L233.841 233.011L213.32 321.984C212.2 326.825 209.678 331.228 206.07 334.644C202.462 338.06 197.927 340.337 193.033 341.192C188.138 342.046 183.1 341.439 178.548 339.447C173.996 337.456 170.132 334.167 167.438 329.992L118.694 253.228L27.5373 261.767C22.5754 262.244 17.5837 261.235 13.197 258.867C8.81023 256.5 5.22652 252.882 2.90147 248.473C0.576425 244.063 -0.384935 239.062 0.139614 234.105C0.66417 229.148 2.65094 224.459 5.84734 220.634L64.3935 150.252L28.5854 66.6663C26.6432 62.0838 26.0965 57.0302 27.0138 52.1384C27.9311 47.2466 30.2716 42.7343 33.742 39.1668C37.2125 35.5993 41.6585 33.1353 46.5232 32.0835C51.3878 31.0317 56.4546 31.4388 61.0889 33.2539L61.0323 33.1795Z" fill="url(#paint0_linear_5392_4108)"/>
<defs>
<linearGradient id="paint0_linear_5392_4108" x1="251.513" y1="235.641" x2="49.0376" y2="45.1344" gradientUnits="userSpaceOnUse">
<stop offset="0.356957" stop-color="#AC2297"/>
<stop offset="1" stop-color="#460E3E"/>
</linearGradient>
</defs>
</svg>
