<svg width="38" height="38" viewBox="0 0 38 38" fill="none" xmlns="http://www.w3.org/2000/svg">
<path d="M34.4375 15.4375C34.7524 15.4375 35.0545 15.3124 35.2772 15.0897C35.4999 14.867 35.625 14.5649 35.625 14.25V9.5C35.625 8.87011 35.3748 8.26602 34.9294 7.82062C34.484 7.37522 33.8799 7.125 33.25 7.125H4.75C4.12011 7.125 3.51602 7.37522 3.07062 7.82062C2.62522 8.26602 2.375 8.87011 2.375 9.5V14.25C2.375 14.5649 2.50011 14.867 2.72281 15.0897C2.94551 15.3124 3.24756 15.4375 3.5625 15.4375C4.50733 15.4375 5.41347 15.8128 6.08157 16.4809C6.74967 17.149 7.125 18.0552 7.125 19C7.125 19.9448 6.74967 20.851 6.08157 21.5191C5.41347 22.1872 4.50733 22.5625 3.5625 22.5625C3.24756 22.5625 2.94551 22.6876 2.72281 22.9103C2.50011 23.133 2.375 23.4351 2.375 23.75V28.5C2.375 29.1299 2.62522 29.734 3.07062 30.1794C3.51602 30.6248 4.12011 30.875 4.75 30.875H33.25C33.8799 30.875 34.484 30.6248 34.9294 30.1794C35.3748 29.734 35.625 29.1299 35.625 28.5V23.75C35.625 23.4351 35.4999 23.133 35.2772 22.9103C35.0545 22.6876 34.7524 22.5625 34.4375 22.5625C33.4927 22.5625 32.5865 22.1872 31.9184 21.5191C31.2503 20.851 30.875 19.9448 30.875 19C30.875 18.0552 31.2503 17.149 31.9184 16.4809C32.5865 15.8128 33.4927 15.4375 34.4375 15.4375ZM4.75 24.8188C6.09222 24.5462 7.29894 23.818 8.1657 22.7576C9.03246 21.6971 9.50595 20.3696 9.50595 19C9.50595 17.6304 9.03246 16.3029 8.1657 15.2424C7.29894 14.182 6.09222 13.4538 4.75 13.1813V9.5H13.0625V28.5H4.75V24.8188Z" fill="black"/>
</svg>
