<svg width="36" height="36" viewBox="0 0 36 36" fill="none" xmlns="http://www.w3.org/2000/svg">
<path d="M32.946 16.1502L26.6178 21.6106L28.5458 29.7767C28.6522 30.22 28.6248 30.6849 28.4671 31.1126C28.3094 31.5404 28.0285 31.9118 27.6598 32.1799C27.2911 32.4481 26.8512 32.601 26.3957 32.6192C25.9402 32.6375 25.4895 32.5204 25.1005 32.2827L17.9989 27.912L10.8932 32.2827C10.5042 32.519 10.0541 32.635 9.59932 32.6161C9.14459 32.5971 8.70563 32.4441 8.33772 32.1761C7.96981 31.9082 7.6894 31.5374 7.5318 31.1104C7.3742 30.6835 7.34646 30.2194 7.45206 29.7767L9.38706 21.6106L3.05894 16.1502C2.71482 15.8527 2.46596 15.4606 2.34341 15.0225C2.22087 14.5845 2.23008 14.1201 2.36989 13.6873C2.50971 13.2545 2.77394 12.8725 3.12957 12.589C3.48521 12.3055 3.91649 12.133 4.36956 12.0931L12.6664 11.4237L15.8671 3.67812C16.0403 3.25599 16.3352 2.89491 16.7141 2.64079C17.0931 2.38666 17.5391 2.25098 17.9954 2.25098C18.4517 2.25098 18.8977 2.38666 19.2767 2.64079C19.6557 2.89491 19.9505 3.25599 20.1238 3.67812L23.323 11.4237L31.6199 12.0931C32.0738 12.1315 32.5064 12.303 32.8633 12.5862C33.2202 12.8693 33.4857 13.2515 33.6264 13.6848C33.7671 14.1181 33.7767 14.5833 33.6542 15.0221C33.5317 15.4609 33.2824 15.8538 32.9375 16.1516L32.946 16.1502Z" fill="black"/>
</svg>
